<?xml version="1.0" standalone="no"?>
<!DOCTYPE svg PUBLIC "-//W3C//DTD SVG 20010904//EN"
 "http://www.w3.org/TR/2001/REC-SVG-20010904/DTD/svg10.dtd">
<svg version="1.0" xmlns="http://www.w3.org/2000/svg"
 width="1024.000000pt" height="1024.000000pt" viewBox="0 0 1024.000000 1024.000000"
 preserveAspectRatio="xMidYMid meet">

<g transform="translate(0.000000,1024.000000) scale(0.100000,-0.100000)"
fill="#000000" stroke="none">
<path d="M1752 6965 c-154 -34 -276 -100 -395 -214 -115 -109 -177 -207 -228
-356 l-24 -70 0 -1315 c0 -1263 1 -1317 19 -1370 61 -177 172 -295 341 -361
56 -22 76 -24 310 -27 283 -4 354 5 464 59 84 42 178 136 220 220 55 113 61
150 61 419 l0 245 93 -90 c78 -77 108 -99 197 -143 139 -69 214 -86 370 -86
224 0 382 64 597 240 l33 27 0 -204 c0 -138 5 -226 15 -271 42 -199 186 -353
376 -403 76 -21 497 -20 591 0 209 44 346 181 394 395 13 57 19 69 28 58 7 -7
44 -51 83 -98 144 -173 309 -280 523 -338 l95 -27 420 1 c403 0 423 0 499 22
228 64 401 203 496 397 61 124 80 220 87 428 6 195 13 212 58 166 13 -13 108
-175 211 -359 103 -184 201 -355 217 -380 47 -69 148 -162 216 -198 132 -71
153 -75 411 -80 274 -4 323 2 437 58 209 103 321 361 269 619 -23 113 -41 150
-231 476 -91 156 -165 287 -165 291 0 3 36 44 79 90 178 188 291 416 337 679
23 135 24 406 1 532 -47 260 -152 474 -317 647 -156 164 -303 251 -517 308
l-88 23 -1370 0 -1370 0 -80 -28 c-44 -16 -105 -42 -135 -59 -66 -38 -184
-156 -225 -226 -16 -29 -32 -52 -35 -51 -3 0 -16 23 -30 52 -14 30 -57 84
-100 128 -91 92 -200 151 -323 174 -111 21 -940 21 -1038 1 -143 -31 -328
-131 -405 -219 l-36 -42 -72 70 c-84 82 -170 135 -281 172 l-80 27 -470 3
c-373 2 -483 -1 -533 -12z m2827 -451 c64 -19 127 -73 155 -134 20 -43 21 -65
26 -525 l5 -480 36 -3 c32 -3 41 2 79 45 61 70 138 182 415 608 136 209 263
399 282 423 57 70 63 71 318 73 259 1 267 -1 246 -64 -25 -74 -239 -386 -590
-857 -207 -279 -281 -385 -281 -406 0 -8 89 -129 198 -267 109 -139 249 -319
312 -401 221 -288 260 -324 379 -346 70 -13 247 -13 272 0 19 10 19 34 20
1103 0 978 4 1215 20 1231 2 3 405 6 894 6 979 2 959 3 1083 -59 159 -80 277
-240 334 -451 20 -76 23 -107 22 -290 0 -180 -3 -215 -22 -285 -47 -170 -132
-306 -244 -391 -57 -43 -173 -104 -197 -104 -25 0 -121 -43 -121 -53 0 -7 21
-48 46 -92 25 -44 158 -279 296 -523 268 -477 271 -484 218 -523 -22 -17 -47
-19 -222 -20 -210 0 -229 3 -274 53 -20 21 -182 310 -439 783 -124 228 -132
239 -189 254 -67 17 -690 15 -704 -2 -7 -8 -12 -163 -14 -452 -3 -436 -3 -441
-26 -491 -28 -63 -62 -96 -124 -124 -79 -34 -185 -42 -515 -37 -331 5 -383 11
-482 61 -72 37 -116 86 -357 401 -505 661 -582 755 -624 755 -10 0 -28 -10
-40 -22 -20 -21 -20 -32 -20 -583 0 -439 -3 -565 -13 -579 -7 -9 -30 -21 -52
-26 -53 -12 -386 -12 -405 0 -13 8 -15 147 -18 1137 -2 794 -6 1131 -14 1140
-8 9 -45 13 -138 13 -71 0 -136 -3 -144 -6 -19 -7 -19 -7 -245 -780 -94 -320
-182 -613 -196 -651 -52 -139 -143 -220 -275 -244 -144 -26 -297 36 -368 149
-39 62 -35 50 -262 842 l-196 685 -173 3 c-119 2 -178 -1 -187 -9 -12 -10 -14
-172 -14 -1009 0 -548 -3 -1052 -7 -1119 -8 -164 4 -156 -250 -156 -171 0
-194 2 -210 18 -17 17 -18 81 -18 1280 l0 1262 22 47 c29 63 102 134 171 166
l57 27 425 3 c284 2 437 0 462 -8 51 -15 94 -54 123 -110 14 -27 83 -284 163
-601 77 -305 149 -576 160 -603 31 -69 50 -61 84 39 14 44 88 316 163 605 75
288 145 540 155 560 21 41 52 70 100 96 32 17 69 19 405 24 204 3 393 7 421 8
28 1 74 -5 103 -14z"/>
<path d="M6982 6068 c-17 -17 -18 -748 0 -766 9 -9 134 -12 503 -12 409 0 501
3 550 15 117 31 191 88 233 182 14 31 17 68 17 203 0 152 -2 169 -24 217 -27
61 -84 116 -150 147 -45 20 -59 21 -581 24 -416 2 -538 0 -548 -10z"/>
</g>
</svg>
